<svg width="960" height="540" viewBox="0 0 960 540" fill="none" xmlns="http://www.w3.org/2000/svg">
  <defs>
    <linearGradient id="bg" x1="0" y1="0" x2="1" y2="1">
      <stop offset="0" stop-color="#020617" />
      <stop offset="1" stop-color="#020617" stop-opacity="0.9" />
    </linearGradient>
    <linearGradient id="glow1" x1="0" y1="0" x2="0" y2="1">
      <stop offset="0" stop-color="#38BDF8" stop-opacity="0.9" />
      <stop offset="1" stop-color="#22C55E" stop-opacity="0.2" />
    </linearGradient>
  </defs>
  <rect width="960" height="540" rx="32" fill="url(#bg)" />

  <rect x="72" y="120" width="160" height="300" rx="18" fill="#020617" stroke="#1E293B" stroke-width="2" />
  <circle cx="112" cy="156" r="6" fill="#22C55E" />
  <rect x="96" y="186" width="64" height="10" rx="4" fill="#1E293B" />
  <rect x="96" y="210" width="64" height="10" rx="4" fill="#1E293B" />
  <rect x="96" y="234" width="64" height="10" rx="4" fill="#1E293B" />

  <rect x="264" y="96" width="190" height="336" rx="22" fill="#020617" stroke="#1E293B" stroke-width="2" />
  <circle cx="304" cy="138" r="7" fill="#FACC15" />
  <rect x="292" y="168" width="96" height="18" rx="8" fill="#0F172A" />
  <rect x="292" y="204" width="120" height="120" rx="10" fill="#020617" stroke="#1E293B" />
  <rect x="292" y="340" width="120" height="10" rx="4" fill="#1E293B" />

  <rect x="504" y="70" width="210" height="360" rx="24" fill="url(#glow1)" />
  <rect x="514" y="80" width="190" height="340" rx="20" fill="#ECFEFF" />
  <rect x="536" y="104" width="80" height="10" rx="4" fill="#0EA5E9" />
  <rect x="536" y="134" width="120" height="120" rx="12" fill="#0F172A" />
  <rect x="536" y="272" width="120" height="40" rx="10" fill="#0F172A" />
  <circle cx="552" cy="292" r="6" fill="#22C55E" />
  <rect x="574" y="286" width="64" height="12" rx="6" fill="#111827" />

  <rect x="752" y="140" width="40" height="240" rx="14" fill="#020617" stroke="#1E293B" />
  <circle cx="772" cy="160" r="6" fill="#22C55E" />
  <rect x="764" y="188" width="16" height="56" rx="6" fill="#1E293B" />
  <rect x="764" y="252" width="16" height="56" rx="6" fill="#1E293B" />

  <rect x="140" y="440" width="240" height="4" rx="2" fill="#0F172A" />
  <rect x="340" y="440" width="260" height="4" rx="2" fill="#0F172A" />
  <rect x="648" y="440" width="120" height="4" rx="2" fill="#0F172A" />

  <text x="80" y="496" fill="#CBD5F5" font-family="system-ui, -apple-system, BlinkMacSystemFont, 'SF Pro Text', sans-serif" font-size="14" letter-spacing="0.18em">
    TYPICAL EV SITE — ILLUSTRATION ONLY
  </text>
</svg>
